<svg xmlns="http://www.w3.org/2000/svg" fill="none" viewBox="0 0 24 24"><path stroke="currentColor" stroke-linecap="round" stroke-linejoin="round" stroke-width="1.5" d="M19.439 15.439a19.5 19.5 0 0 0 2.105-2.484c.304-.426.456-.64.456-.955 0-.316-.152-.529-.456-.955C20.178 9.129 16.689 5 12 5c-.908 0-1.77.155-2.582.418m-2.67 1.33c-2.017 1.36-3.506 3.195-4.292 4.297-.304.426-.456.64-.456.955 0 .316.152.529.456.955C3.822 14.871 7.311 19 12 19c1.99 0 3.765-.744 5.253-1.747"/><path stroke="currentColor" stroke-linecap="round" stroke-width="1.5" d="M9.858 10A2.929 2.929 0 1 0 14 14.142"/><path stroke="currentColor" stroke-linecap="round" stroke-linejoin="round" stroke-width="1.5" d="m3 3 18 18"/></svg>