<svg xmlns="http://www.w3.org/2000/svg" fill="none" viewBox="0 0 24 24"><path stroke="currentColor" stroke-linecap="round" stroke-linejoin="round" stroke-width="1.5" d="M9.727 2c-3.26 0-4.892 0-6.024.798a4.1 4.1 0 0 0-.855.805C2 4.669 2 6.203 2 9.273v2.545c0 2.963 0 4.445.469 5.628.754 1.903 2.348 3.403 4.37 4.113 1.257.441 2.83.441 5.98.441 1.798 0 2.698 0 3.416-.252 1.155-.406 2.066-1.263 2.497-2.35.268-.676.268-1.523.268-3.216V15.5"/><path stroke="#000" stroke-linecap="round" stroke-linejoin="round" stroke-width="1.5" d="M2 12a3.333 3.333 0 0 0 3.333 3.333c.666 0 1.451-.116 2.098.057a1.67 1.67 0 0 1 1.179 1.18c.173.647.057 1.432.057 2.098A3.333 3.333 0 0 0 12 22"/><path stroke="#000" stroke-linejoin="round" stroke-width="1.5" d="m17 2 .385 1.708a3.85 3.85 0 0 0 2.907 2.907L22 7l-1.708.385a3.85 3.85 0 0 0-2.907 2.907L17 12l-.385-1.708a3.85 3.85 0 0 0-2.907-2.907L12 7l1.708-.385a3.85 3.85 0 0 0 2.907-2.907z"/></svg>