<svg xmlns="http://www.w3.org/2000/svg" fill="none" viewBox="0 0 28 28"><path stroke="currentColor" stroke-linecap="round" stroke-width="1.75" d="M14 19.25v-2.333"/><path stroke="currentColor" stroke-width="1.75" d="M4.98 21.986c.263 1.948 1.877 3.475 3.84 3.565a111 111 0 0 0 5.181.116c1.85 0 3.528-.04 5.18-.116 1.965-.09 3.579-1.617 3.841-3.565.171-1.272.313-2.576.313-3.903s-.142-2.63-.313-3.902c-.262-1.948-1.876-3.475-3.84-3.565a111 111 0 0 0-5.18-.116c-1.85 0-3.528.04-5.181.116-1.964.09-3.578 1.617-3.84 3.565-.172 1.272-.313 2.575-.313 3.902 0 1.328.141 2.63.312 3.903Z"/><path stroke="currentColor" stroke-linecap="round" stroke-linejoin="round" stroke-width="1.75" d="M8.75 10.5V7.583a5.25 5.25 0 1 1 10.5 0V10.5"/></svg>