<svg xmlns="http://www.w3.org/2000/svg" fill="none" viewBox="0 0 52 52"><path stroke="currentColor" stroke-linecap="round" stroke-width="3.25" d="M29.249 44.833c-1.01.445-2.02.667-3.25.667-2.906 0-4.581-1.24-7.931-3.72C.479 28.763 2.205 13.332 9.83 8.655c5.81-3.564 10.881-2.128 13.928.16 1.249.938 1.873 1.407 2.24 1.407s.993-.469 2.242-1.407c3.046-2.288 8.117-3.724 13.928-.16 3.82 2.344 6.16 7.387 5.33 13.475"/><path stroke="currentColor" stroke-linecap="round" stroke-width="2.79" d="M30.926 23.497c3.05-.864 5.177.384 6.286 1.76.455.564.682.846.848.89.167.046.505-.085 1.18-.346 1.65-.638 4.115-.655 6.324 1.618 2.9 2.984 1.862 9.984-7.635 13.58-1.809.685-2.713 1.027-4.029.675-1.315-.353-1.927-1.101-3.151-2.599-6.427-7.863-3.826-14.444.177-15.578Z"/></svg>