<svg xmlns="http://www.w3.org/2000/svg" fill="none" viewBox="0 0 64 64"><g clip-path="url(#a)"><rect width="64" height="64" fill="#6929C4" rx="22"/><rect width="64" height="64" fill="url(#b)" rx="22"/><path fill="#fff" d="M57.45 41.614q-2.19 0-3.849-.883a6.45 6.45 0 0 1-2.587-2.466q-.93-1.582-.93-3.704 0-1.544.532-2.835a6.65 6.65 0 0 1 1.512-2.228 6.9 6.9 0 0 1 2.296-1.463q1.327-.528 2.906-.528 1.739 0 3.078.607a6 6 0 0 1 2.243 1.7q.89 1.082 1.234 2.545.358 1.463.067 3.177H53.68q0 .923.478 1.609.49.686 1.366 1.08.89.384 2.07.383 1.168 0 2.23-.316a7.1 7.1 0 0 0 2.003-.963l1.287 2.637q-.636.488-1.592.87a11.3 11.3 0 0 1-2.03.567q-1.062.21-2.044.211m-3.544-8.728h6.33q-.04-1.173-.836-1.859-.783-.685-2.163-.685t-2.296.685q-.901.686-1.035 1.86m-14.625 8.727q-1.938 0-3.45-.883-1.5-.897-2.376-2.492-.862-1.596-.862-3.678 0-1.49.49-2.769.505-1.28 1.407-2.241a6.4 6.4 0 0 1 2.137-1.503q1.234-.54 2.72-.54 1.632 0 2.893.645 1.273.633 2.19 1.86l-.877.882v-8.661h3.875v18.984h-3.37v-3.375l.53.87q-.623 1.28-1.977 2.097-1.353.804-3.33.804m.716-3.335q1.022 0 1.831-.449.81-.46 1.274-1.292.465-.83.465-1.977t-.465-1.978q-.45-.83-1.26-1.279-.81-.46-1.845-.461-1.035 0-1.844.461-.81.448-1.274 1.279-.465.83-.465 1.978 0 1.146.465 1.977t1.274 1.292q.81.45 1.844.449M20.85 41.614q-1.62 0-2.695-.672a3.6 3.6 0 0 1-1.499-1.912q-.41-1.226-.08-2.887l1.765-8.24h3.875l-1.632 7.62q-.226 1.266.278 1.938.517.66 1.726.66.81 0 1.472-.317.678-.33 1.142-.95.478-.632.676-1.542l1.58-7.41h3.874L28.48 41.219h-3.384l.372-1.713a6.4 6.4 0 0 1-1.95 1.516q-1.141.593-2.668.593M0 41.219V27.902h3.875v1.503q.77-1.003 1.818-1.45a5.6 5.6 0 0 1 2.216-.449q1.87 0 3.078.738 1.221.726 1.805 1.886a5.26 5.26 0 0 1 .597 2.439v8.648H9.514V33.77q0-1.266-.716-2.018-.704-.75-2.044-.751-.849 0-1.5.382a2.64 2.64 0 0 0-1.021 1.042q-.358.672-.358 1.556v7.237z"/></g><defs><linearGradient id="b" x1="0" x2="64" y1="32" y2="32" gradientUnits="userSpaceOnUse"><stop stop-color="#FF5050"/><stop offset=".34" stop-color="#FF32A1"/><stop offset=".73" stop-color="#935CE5"/><stop offset="1" stop-color="#5D80FF"/></linearGradient><clipPath id="a"><path fill="#fff" d="M0 0h64v64H0z"/></clipPath></defs></svg>