<svg xmlns="http://www.w3.org/2000/svg" fill="currentColor" viewBox="0 0 154 51"><path d="M128.416 39.768q-4.437 0-7.798-1.802-3.361-1.8-5.243-5.028t-1.883-7.556q0-3.145 1.076-5.781 1.103-2.636 3.065-4.545a13.9 13.9 0 0 1 4.652-2.984q2.69-1.076 5.889-1.076 3.523 0 6.238 1.237 2.744 1.236 4.545 3.469 1.801 2.205 2.501 5.19.726 2.985.134 6.48h-20.813q0 1.882.969 3.28.995 1.398 2.769 2.205 1.801.78 4.195.78 2.366 0 4.517-.645a14.4 14.4 0 0 0 4.061-1.963l2.608 5.378q-1.291.995-3.227 1.774-1.935.753-4.114 1.157a21 21 0 0 1-4.141.43m-7.179-17.801h12.826q-.081-2.393-1.694-3.791-1.587-1.4-4.383-1.399t-4.652 1.398q-1.829 1.4-2.097 3.792M91.595 39.768q-3.926 0-6.992-1.802-3.038-1.828-4.813-5.082-1.748-3.254-1.748-7.502 0-3.039.995-5.647 1.022-2.608 2.85-4.571a13 13 0 0 1 4.33-3.065q2.5-1.103 5.512-1.103 3.308 0 5.862 1.318 2.581 1.29 4.437 3.791l-1.775 1.802V.24h7.852v38.721h-6.83v-6.884l1.075 1.775q-1.263 2.608-4.006 4.276-2.742 1.64-6.75 1.64m1.452-6.803q2.07 0 3.71-.914a6.76 6.76 0 0 0 2.582-2.636q.94-1.693.941-4.033 0-2.34-.941-4.033a6.4 6.4 0 0 0-2.555-2.609q-1.64-.94-3.737-.94t-3.738.94q-1.64.915-2.581 2.609t-.941 4.033.94 4.033a6.76 6.76 0 0 0 2.582 2.636q1.641.915 3.738.914m-38.797 6.803q-3.28 0-5.459-1.371-2.178-1.399-3.038-3.9-.834-2.5-.162-5.888l3.577-16.806h7.852L53.71 27.345q-.457 2.58.565 3.953 1.048 1.344 3.496 1.344 1.64 0 2.984-.645a6.3 6.3 0 0 0 2.313-1.936q.967-1.291 1.371-3.146l3.2-15.112h7.852L69.71 38.96h-6.856l.752-3.495q-1.613 1.881-3.952 3.092-2.313 1.21-5.405 1.21M12 38.961V11.803h7.852v3.065q1.56-2.043 3.684-2.958a11.4 11.4 0 0 1 4.49-.914q3.792 0 6.238 1.506 2.475 1.48 3.657 3.845a10.8 10.8 0 0 1 1.21 4.975v17.64H31.28V23.768q0-2.582-1.452-4.114-1.425-1.533-4.141-1.533-1.721 0-3.039.78a5.37 5.37 0 0 0-2.07 2.124q-.726 1.371-.726 3.173V38.96z"/></svg>